<svg width="176.031" height="52.959" viewBox="0 0 46.575 14.012"
  xmlns="http://www.w3.org/2000/svg">
  <path d="M16.55.04H1.712C.768.04 0 .808 0 1.752v10.273c0 .944.768 1.712 1.712 1.712H16.55c.944 0 1.712-.768 1.712-1.712V1.752c0-.944-.768-1.712-1.712-1.712zm0 1.141c.078 0 .151.016.219.045L9.13 7.846l-7.638-6.62a.568.568 0 01.218-.045zm0 11.414H1.712a.571.571 0 01-.57-.57V2.43l7.615 6.6a.57.57 0 00.748 0l7.616-6.6v9.594c0 .315-.256.57-.57.57z" />
  <path d="M35.98 9.14c-.742 0-1.346.604-1.346 1.346 0 .742.604 1.346 1.346 1.346s1.346-.604 1.346-1.346c0-.742-.604-1.346-1.346-1.346zm0 1.795a.45.45 0 11.001-.899.45.45 0 01-.001.899zM35.98 1.96c-.742 0-1.346.604-1.346 1.346s.604 1.346 1.346 1.346a5.839 5.839 0 015.832 5.832c0 .742.604 1.346 1.346 1.346.742 0 1.346-.604 1.346-1.346 0-4.7-3.824-8.524-8.524-8.524zm7.178 8.973a.45.45 0 01-.449-.449c0-3.71-3.018-6.73-6.729-6.73a.45.45 0 010-.897c4.205 0 7.627 3.422 7.627 7.627a.45.45 0 01-.449.449z" />
  <path d="M35.98 5.55c-.742 0-1.346.604-1.346 1.346 0 .742.604 1.346 1.346 1.346a2.246 2.246 0 012.243 2.243c0 .742.604 1.346 1.346 1.346.742 0 1.346-.604 1.346-1.346A4.94 4.94 0 0035.98 5.55zm3.59 5.384a.45.45 0 01-.45-.449 3.144 3.144 0 00-3.14-3.14.45.45 0 010-.898 4.042 4.042 0 014.038 4.038.45.45 0 01-.449.449zM20.93 9.13h3.116v1.528A.382.382 0 0024.6 11l6.114-3.057a.382.382 0 000-.683l-6.114-3.057a.382.382 0 00-.553.342v1.528H20.93a.381.381 0 00-.382.382v2.293c0 .21.17.382.382.382zm.382-2.293h3.117a.382.382 0 00.382-.382V5.163l4.877 2.439-4.877 2.438V8.748a.382.382 0 00-.382-.382h-3.117z" />
  <path d="M34.44 0a1.887 1.887 0 00-1.879 1.879v10.254c0 1.031.848 1.879 1.879 1.879h10.256a1.887 1.887 0 001.879-1.88V1.88A1.887 1.887 0 0044.696 0H34.44zm0 1.111h10.256c.435 0 .768.333.768.768v10.254a.754.754 0 01-.768.767H34.44a.754.754 0 01-.768-.767V1.879c0-.435.333-.768.768-.768z" />
</svg>