<?xml version="1.0" encoding="UTF-8" standalone="no"?>
<svg
   xmlns:dc="http://purl.org/dc/elements/1.1/"
   xmlns:cc="http://creativecommons.org/ns#"
   xmlns:rdf="http://www.w3.org/1999/02/22-rdf-syntax-ns#"
   xmlns:svg="http://www.w3.org/2000/svg"
   xmlns="http://www.w3.org/2000/svg"
   xmlns:sodipodi="http://sodipodi.sourceforge.net/DTD/sodipodi-0.dtd"
   xmlns:inkscape="http://www.inkscape.org/namespaces/inkscape"
   inkscape:export-ydpi="96"
   inkscape:export-xdpi="96"
   inkscape:export-filename="/Users/leafac/Code/www.kill-the-newsletter.com/static/favicon.png"
   width="50mm"
   height="50mm"
   viewBox="0 0 49.999999 50.000001"
   version="1.1"
   id="svg8"
   inkscape:version="1.0 (4035a4f, 2020-05-01)"
   sodipodi:docname="favicon.svg">
  <defs
     id="defs2" />
  <sodipodi:namedview
     id="base"
     pagecolor="#ffffff"
     bordercolor="#666666"
     borderopacity="1.0"
     inkscape:pageopacity="0.0"
     inkscape:pageshadow="2"
     inkscape:zoom="1"
     inkscape:cx="115.81001"
     inkscape:cy="36.427852"
     inkscape:document-units="mm"
     inkscape:current-layer="layer1"
     inkscape:document-rotation="0"
     showgrid="false"
     showguides="true"
     inkscape:guide-bbox="true"
     inkscape:window-width="1440"
     inkscape:window-height="855"
     inkscape:window-x="0"
     inkscape:window-y="23"
     inkscape:window-maximized="0" />
  <metadata
     id="metadata5">
    <rdf:RDF>
      <cc:Work
         rdf:about="">
        <dc:format>image/svg+xml</dc:format>
        <dc:type
           rdf:resource="http://purl.org/dc/dcmitype/StillImage" />
        <dc:title></dc:title>
      </cc:Work>
    </rdf:RDF>
  </metadata>
  <g
     inkscape:label="Layer 1"
     inkscape:groupmode="layer"
     id="layer1"
     transform="translate(-133.35686,-107.67661)">
    <rect
       ry="1.3229166"
       rx="1.323"
       y="107.67661"
       x="133.35686"
       height="50"
       width="50"
       id="rect932"
       style="fill:#ffffff;stroke:none;stroke-width:1.11125;stroke-miterlimit:4;stroke-dasharray:none;stop-color:#000000" />
    <g
       transform="translate(0.90670025,18.549584)"
       id="g940">
      <path
         style="stroke-width:0.282776"
         d="m 150.71334,107.15848 h -14.83841 c -0.94413,0 -1.71214,0.76801 -1.71214,1.71214 v 10.27276 c 0,0.94413 0.76801,1.71213 1.71214,1.71213 h 14.83841 c 0.94413,0 1.71213,-0.768 1.71213,-1.71213 v -10.27276 c 0,-0.94413 -0.768,-1.71214 -1.71213,-1.71214 z m 0,1.14141 c 0.0776,0 0.1513,0.016 0.21874,0.0442 l -7.63795,6.61986 -7.63798,-6.61986 c 0.0675,-0.0281 0.1412,-0.0442 0.21875,-0.0442 z m 0,11.41417 h -14.83841 c -0.31488,0 -0.57072,-0.2558 -0.57072,-0.57072 v -9.59335 l 7.61594,6.60049 c 0.10759,0.0931 0.24078,0.13934 0.37398,0.13934 0.1332,0 0.26639,-0.0462 0.37399,-0.13934 l 7.61595,-6.60049 v 9.59339 c -5e-5,0.31488 -0.25584,0.57068 -0.57073,0.57068 z"
         id="path1162" />
      <path
         style="stroke-width:0.264583"
         id="path1266"
         d="m 170.13517,116.25922 c -0.74213,0 -1.34591,0.60377 -1.34591,1.34591 0,0.74213 0.60378,1.3459 1.34591,1.3459 0.74213,0 1.3459,-0.60377 1.3459,-1.3459 0,-0.74214 -0.60377,-1.34591 -1.3459,-1.34591 z m 0,1.79455 c -0.24738,0 -0.44865,-0.20127 -0.44865,-0.44864 0,-0.24738 0.20127,-0.44865 0.44865,-0.44865 0.24737,0 0.44864,0.20127 0.44864,0.44865 -3e-5,0.24737 -0.20127,0.44864 -0.44864,0.44864 z" />
      <path
         style="stroke-width:0.264583"
         id="path1272"
         d="m 170.13517,109.08108 c -0.74213,0 -1.34591,0.60378 -1.34591,1.34591 0,0.74213 0.60378,1.3459 1.34591,1.3459 3.2159,0 5.83223,2.61636 5.83223,5.83224 0,0.74213 0.60377,1.3459 1.3459,1.3459 0.74214,0 1.34591,-0.60377 1.34591,-1.3459 0,-4.70015 -3.8239,-8.52405 -8.52404,-8.52405 z m 7.17813,8.97269 c -0.24737,0 -0.44864,-0.20127 -0.44864,-0.44864 0,-3.71067 -3.01886,-6.72952 -6.72952,-6.72952 -0.24738,0 -0.44864,-0.20127 -0.44864,-0.44865 0,-0.24738 0.20126,-0.44864 0.44864,-0.44864 4.20542,0 7.62678,3.42136 7.62678,7.62678 3e-5,0.2474 -0.20124,0.44867 -0.44862,0.44867 z" />
      <path
         style="stroke-width:0.264583"
         id="path1278"
         d="m 170.13517,112.67015 c -0.74213,0 -1.34591,0.60377 -1.34591,1.34591 0,0.74213 0.60378,1.3459 1.34591,1.3459 1.23688,0 2.24316,1.00628 2.24316,2.24317 0,0.74213 0.60377,1.3459 1.34591,1.3459 0.74213,0 1.3459,-0.60377 1.3459,-1.3459 0,-2.72116 -2.21382,-4.93498 -4.93497,-4.93498 z m 3.58907,5.38362 c -0.24738,0 -0.44865,-0.20127 -0.44865,-0.44864 0,-1.73165 -1.40881,-3.14046 -3.14045,-3.14046 -0.24738,0 -0.44864,-0.20126 -0.44864,-0.44864 0,-0.24738 0.20126,-0.44864 0.44864,-0.44864 2.2264,0 4.03771,1.81131 4.03771,4.03771 3e-5,0.2474 -0.20124,0.44867 -0.44861,0.44867 z" />
      <path
         style="stroke-width:0.264583"
         id="path1447"
         d="m 155.09386,116.25295 h 3.11645 l -3e-5,1.52841 c 0,0.13237 0.0686,0.25541 0.18123,0.32503 0.11264,0.0697 0.25331,0.076 0.37175,0.0167 l 6.11361,-3.05679 c 0.12946,-0.0647 0.21121,-0.19707 0.21123,-0.34176 -1e-5,-0.14475 -0.0818,-0.27706 -0.21123,-0.34176 l -6.11363,-3.05682 c -0.11847,-0.0592 -0.25912,-0.0529 -0.37176,0.0167 -0.11269,0.0695 -0.18126,0.19257 -0.18122,0.32503 l -2e-5,1.52841 -3.11642,2e-5 c -0.1055,0 -0.20105,0.0428 -0.27019,0.1119 -0.0691,0.0692 -0.11192,0.16467 -0.11188,0.27017 l -1e-5,2.29262 c 0,0.21104 0.17106,0.38211 0.38211,0.38209 z m 0.3821,-2.29261 3.11642,-1e-5 c 0.21101,1e-5 0.38211,-0.17109 0.3821,-0.3821 v -1.29225 l 4.87712,2.43856 -4.87712,2.43855 v -1.29224 c 2e-5,-0.21083 -0.17108,-0.38212 -0.3821,-0.3821 h -3.11643 z" />
      <rect
         ry="1.3229166"
         rx="1.3229166"
         y="107.67662"
         x="167.28108"
         height="12.900817"
         width="12.900817"
         id="rect35"
         style="fill:none;stroke:#000000;stroke-width:1.11125;stroke-miterlimit:4;stroke-dasharray:none;stop-color:#000000" />
    </g>
  </g>
</svg>
