<?xml version="1.0" encoding="UTF-8" standalone="no"?>
<svg
   xmlns:dc="http://purl.org/dc/elements/1.1/"
   xmlns:cc="http://creativecommons.org/ns#"
   xmlns:rdf="http://www.w3.org/1999/02/22-rdf-syntax-ns#"
   xmlns:svg="http://www.w3.org/2000/svg"
   xmlns="http://www.w3.org/2000/svg"
   xmlns:sodipodi="http://sodipodi.sourceforge.net/DTD/sodipodi-0.dtd"
   xmlns:inkscape="http://www.inkscape.org/namespaces/inkscape"
   sodipodi:docname="favicon.svg"
   inkscape:version="1.0 (4035a4f, 2020-05-01)"
   id="svg8"
   version="1.1"
   viewBox="0 0 55 55.000002"
   height="55mm"
   width="55mm"
   inkscape:export-filename="/Users/leafac/Code/www.kill-the-newsletter.com/static/favicon.png"
   inkscape:export-xdpi="96"
   inkscape:export-ydpi="96">
  <defs
     id="defs2" />
  <sodipodi:namedview
     inkscape:window-maximized="0"
     inkscape:window-y="23"
     inkscape:window-x="0"
     inkscape:window-height="855"
     inkscape:window-width="1440"
     showgrid="false"
     inkscape:document-rotation="0"
     inkscape:current-layer="layer1"
     inkscape:document-units="mm"
     inkscape:cy="16.923229"
     inkscape:cx="-29.05208"
     inkscape:zoom="1"
     inkscape:pageshadow="2"
     inkscape:pageopacity="0.0"
     borderopacity="1.0"
     bordercolor="#666666"
     pagecolor="#ffffff"
     id="base" />
  <metadata
     id="metadata5">
    <rdf:RDF>
      <cc:Work
         rdf:about="">
        <dc:format>image/svg+xml</dc:format>
        <dc:type
           rdf:resource="http://purl.org/dc/dcmitype/StillImage" />
        <dc:title></dc:title>
      </cc:Work>
    </rdf:RDF>
  </metadata>
  <g
     transform="translate(-80.48204,-179.01778)"
     id="layer1"
     inkscape:groupmode="layer"
     inkscape:label="Layer 1">
    <rect
       rx="10"
       y="179.01778"
       x="80.48204"
       height="55"
       width="55"
       id="rect39"
       style="fill:#ffffff;fill-rule:evenodd;stroke-width:0.264583" />
    <path
       d="m 101.67708,198.1092 c -5.753554,0.001 -11.50727,-0.003 -17.260729,0.006 -1.106823,0.0598 -2.10108,1.01254 -2.169098,2.12588 -0.04107,0.51846 -0.0014,1.03903 -0.01601,1.55841 7.87e-4,3.65488 -0.0058,7.30994 0.0082,10.9647 0.07095,1.10527 1.032256,2.08903 2.145348,2.14669 0.516346,0.0374 1.034468,3.3e-4 1.551582,0.0142 5.432073,-0.001 10.864287,0.004 16.296277,-0.006 1.11545,-0.0537 2.1194,-1.01693 2.18085,-2.13906 0.0393,-0.52466 0.001,-1.05126 0.0154,-1.57675 -0.001,-3.6442 0.006,-7.2886 -0.008,-10.93267 -0.0703,-1.09302 -1.00923,-2.06543 -2.10669,-2.146 -0.2114,-0.0211 -0.4244,-0.0177 -0.63663,-0.0158 z m -8.044589,2.01813 c 2.619462,0 5.238926,0 7.858389,0 -2.720322,2.35785 -5.440646,4.71569 -8.160969,7.07354 -2.720323,-2.35785 -5.440645,-4.71569 -8.16097,-7.07354 2.821184,-6.6e-4 5.642367,-6.6e-4 8.46355,0 z m -0.96298,9.17081 c 0.395728,0.36217 1.072604,0.30512 1.425288,-0.0905 2.771974,-2.40238 5.54395,-4.80476 8.315931,-7.20714 -1.4e-4,3.54324 0.004,7.08648 -0.006,10.62971 -0.0332,0.21555 -0.28151,0.31833 -0.47736,0.27713 -5.796593,1.4e-4 -11.593178,0.002 -17.38976,-0.004 -0.213646,-0.0252 -0.329263,-0.26705 -0.287994,-0.46278 0,-3.47991 0,-6.95981 0,-10.43972 2.806702,2.43254 5.613402,4.86507 8.420102,7.29761 z"
       style="stroke-width:0.0449314"
       id="path2033" />
    <g
       transform="matrix(0.16403241,0,0,0.16403241,87.686837,176.19994)"
       id="g2198">
      <path
         d="m 217.60154,216.36679 a 12.304977,12.304977 0 0 1 -12.30497,12.30497 12.304977,12.304977 0 0 1 -12.30498,-12.30497 12.304977,12.304977 0 0 1 12.30498,-12.30498 12.304977,12.304977 0 0 1 12.30497,12.30498"
         id="circle2043"
         style="stroke-width:0.264583" />
      <path
         id="path2049"
         d="m 192.99159,176.76051 v 8.03619 c 0,2.19188 1.78198,3.94805 3.96238,4.16323 18.87618,1.86291 33.88703,16.893 35.74929,35.74946 0.21534,2.18039 1.97151,3.96237 4.16339,3.96237 h 8.03619 c 2.19188,0 3.9835,-1.77946 3.83002,-3.96551 -1.94403,-27.68863 -24.08713,-49.83173 -51.77576,-51.77576 -2.18605,-0.15348 -3.96551,1.63814 -3.96551,3.83002 z"
         style="stroke-width:0.264583" />
      <path
         id="path2051"
         d="m 192.99159,144.84118 v 8.03619 c 0,2.19188 1.77843,3.95732 3.9668,4.07642 36.52258,1.98773 65.79149,31.25664 67.77922,67.77922 0.1191,2.18837 1.88454,3.9668 4.07642,3.9668 h 8.03619 c 2.19188,0 3.97704,-1.77791 3.87854,-3.9674 -2.04037,-45.35579 -38.43929,-81.7554 -83.76972,-83.77191 -2.18954,-0.0974 -3.96745,1.6888 -3.96745,3.88068 z"
         style="stroke-width:0.264583" />
    </g>
    <path
       d="m 112.77847,203.53437 a 0.98558665,0.98558665 0 0 0 -0.98958,0.98558 v 0.7175 h -4.51811 a 1.2803146,1.2803146 0 0 0 -1.28032,1.28032 1.2803146,1.2803146 0 0 0 1.28032,1.28031 h 4.51811 v 0.71752 a 0.98558665,0.98558665 0 0 0 1.47836,0.85354 l 3.46019,-1.99783 a 0.98558665,0.98558665 0 0 0 0,-1.70709 l -3.46019,-1.99782 a 0.98558665,0.98558665 0 0 0 -0.48878,-0.132 z"
       style="color:#000000;font-style:normal;font-variant:normal;font-weight:normal;font-stretch:normal;font-size:medium;line-height:normal;font-family:sans-serif;font-variant-ligatures:normal;font-variant-position:normal;font-variant-caps:normal;font-variant-numeric:normal;font-variant-alternates:normal;font-variant-east-asian:normal;font-feature-settings:normal;font-variation-settings:normal;text-indent:0;text-align:start;text-decoration:none;text-decoration-line:none;text-decoration-style:solid;text-decoration-color:#000000;letter-spacing:normal;word-spacing:normal;text-transform:none;writing-mode:lr-tb;direction:ltr;text-orientation:mixed;dominant-baseline:auto;baseline-shift:baseline;text-anchor:start;white-space:normal;shape-padding:0;shape-margin:0;inline-size:0;clip-rule:nonzero;display:inline;overflow:visible;visibility:visible;opacity:1;isolation:auto;mix-blend-mode:normal;color-interpolation:sRGB;color-interpolation-filters:linearRGB;solid-color:#000000;solid-opacity:1;vector-effect:none;fill:#000000;fill-opacity:1;fill-rule:nonzero;stroke:none;stroke-width:2.56064;stroke-linecap:round;stroke-linejoin:miter;stroke-miterlimit:4;stroke-dasharray:none;stroke-dashoffset:0;stroke-opacity:1;color-rendering:auto;image-rendering:auto;shape-rendering:auto;text-rendering:auto;enable-background:accumulate;stop-color:#000000;stop-opacity:1"
       id="path3496" />
  </g>
</svg>
