<?xml version="1.0" encoding="UTF-8" standalone="no"?>
<svg
   xmlns:dc="http://purl.org/dc/elements/1.1/"
   xmlns:cc="http://creativecommons.org/ns#"
   xmlns:rdf="http://www.w3.org/1999/02/22-rdf-syntax-ns#"
   xmlns:svg="http://www.w3.org/2000/svg"
   xmlns="http://www.w3.org/2000/svg"
   xmlns:sodipodi="http://sodipodi.sourceforge.net/DTD/sodipodi-0.dtd"
   xmlns:inkscape="http://www.inkscape.org/namespaces/inkscape"
   inkscape:export-ydpi="96"
   inkscape:export-xdpi="96"
   inkscape:export-filename="/Users/leafac/Code/www.kill-the-newsletter.com/static/logo.png"
   width="32.873547mm"
   height="10.735652mm"
   viewBox="0 0 32.873546 10.735652"
   version="1.1"
   id="svg8"
   inkscape:version="1.0 (4035a4f, 2020-05-01)"
   sodipodi:docname="logo.svg">
  <defs
     id="defs2" />
  <sodipodi:namedview
     id="base"
     pagecolor="#ffffff"
     bordercolor="#666666"
     borderopacity="1.0"
     inkscape:pageopacity="0.0"
     inkscape:pageshadow="2"
     inkscape:zoom="1"
     inkscape:cx="265.44793"
     inkscape:cy="-6.076438"
     inkscape:document-units="mm"
     inkscape:current-layer="layer1"
     inkscape:document-rotation="0"
     showgrid="false"
     inkscape:window-width="1440"
     inkscape:window-height="855"
     inkscape:window-x="0"
     inkscape:window-y="23"
     inkscape:window-maximized="0" />
  <metadata
     id="metadata5">
    <rdf:RDF>
      <cc:Work
         rdf:about="">
        <dc:format>image/svg+xml</dc:format>
        <dc:type
           rdf:resource="http://purl.org/dc/dcmitype/StillImage" />
        <dc:title></dc:title>
      </cc:Work>
    </rdf:RDF>
  </metadata>
  <g
     inkscape:label="Layer 1"
     inkscape:groupmode="layer"
     id="layer1"
     transform="translate(-80.482039,-185.10311)">
    <path
       id="path2033"
       style="stroke-width:0.0286762"
       d="m 92.894858,185.10436 c -3.67204,6.4e-4 -7.344181,-0.002 -11.016159,0.004 -0.706398,0.0382 -1.340953,0.64623 -1.384364,1.35678 -0.02621,0.33089 -8.93e-4,0.66313 -0.01022,0.99461 5.03e-4,2.33262 -0.0037,4.66536 0.0052,6.9979 0.04528,0.70541 0.658807,1.33327 1.369206,1.37006 0.329542,0.0239 0.660219,2.2e-4 0.990252,0.009 3.466862,-6.4e-4 6.933814,0.003 10.400622,-0.004 0.711903,-0.0343 1.352645,-0.64903 1.391864,-1.36519 0.02508,-0.33485 6.38e-4,-0.67094 0.0098,-1.00632 -6.38e-4,-2.3258 0.0038,-4.65174 -0.0051,-6.97746 -0.04487,-0.69759 -0.644112,-1.3182 -1.344534,-1.36962 -0.13492,-0.0135 -0.270861,-0.0113 -0.40631,-0.0101 z m -5.134226,1.28801 c 1.671795,0 3.343592,0 5.015388,0 -1.736167,1.50483 -3.472334,3.00966 -5.208501,4.51449 -1.736167,-1.50483 -3.472333,-3.00966 -5.208501,-4.51449 1.800538,-4.2e-4 3.601076,-4.2e-4 5.401614,0 z m -0.614594,5.85301 c 0.252562,0.23114 0.684558,0.19473 0.909648,-0.0578 1.769132,-1.53325 3.538265,-3.0665 5.307399,-4.59975 -8.9e-5,2.26137 0.0026,4.52274 -0.0038,6.7841 -0.02119,0.13757 -0.179666,0.20317 -0.304661,0.17687 -3.699505,9e-5 -7.399006,0.001 -11.098506,-0.003 -0.136353,-0.0161 -0.210143,-0.17044 -0.183804,-0.29535 0,-2.22096 0,-4.4419 0,-6.66285 1.791296,1.5525 3.58259,3.10499 5.373885,4.65748 z" />
    <g
       id="g2198"
       transform="matrix(0.10468891,0,0,0.10468891,83.965991,171.12142)">
      <path
         style="stroke-width:0.264583"
         id="circle2043"
         d="m 217.60154,216.36679 a 12.304977,12.304977 0 0 1 -12.30497,12.30497 12.304977,12.304977 0 0 1 -12.30498,-12.30497 12.304977,12.304977 0 0 1 12.30498,-12.30498 12.304977,12.304977 0 0 1 12.30497,12.30498" />
      <path
         style="stroke-width:0.264583"
         d="m 192.99159,176.76051 v 8.03619 c 0,2.19188 1.78198,3.94805 3.96238,4.16323 18.87618,1.86291 33.88703,16.893 35.74929,35.74946 0.21534,2.18039 1.97151,3.96237 4.16339,3.96237 h 8.03619 c 2.19188,0 3.9835,-1.77946 3.83002,-3.96551 -1.94403,-27.68863 -24.08713,-49.83173 -51.77576,-51.77576 -2.18605,-0.15348 -3.96551,1.63814 -3.96551,3.83002 z"
         id="path2049" />
      <path
         style="stroke-width:0.264583"
         d="m 192.99159,144.84118 v 8.03619 c 0,2.19188 1.77843,3.95732 3.9668,4.07642 36.52258,1.98773 65.79149,31.25664 67.77922,67.77922 0.1191,2.18837 1.88454,3.9668 4.07642,3.9668 h 8.03619 c 2.19188,0 3.97704,-1.77791 3.87854,-3.9674 -2.04037,-45.35579 -38.43929,-81.7554 -83.76972,-83.77191 -2.18954,-0.0974 -3.96745,1.6888 -3.96745,3.88068 z"
         id="path2051" />
    </g>
    <path
       id="path3496"
       style="color:#000000;font-style:normal;font-variant:normal;font-weight:normal;font-stretch:normal;font-size:medium;line-height:normal;font-family:sans-serif;font-variant-ligatures:normal;font-variant-position:normal;font-variant-caps:normal;font-variant-numeric:normal;font-variant-alternates:normal;font-variant-east-asian:normal;font-feature-settings:normal;font-variation-settings:normal;text-indent:0;text-align:start;text-decoration:none;text-decoration-line:none;text-decoration-style:solid;text-decoration-color:#000000;letter-spacing:normal;word-spacing:normal;text-transform:none;writing-mode:lr-tb;direction:ltr;text-orientation:mixed;dominant-baseline:auto;baseline-shift:baseline;text-anchor:start;white-space:normal;shape-padding:0;shape-margin:0;inline-size:0;clip-rule:nonzero;display:inline;overflow:visible;visibility:visible;opacity:1;isolation:auto;mix-blend-mode:normal;color-interpolation:sRGB;color-interpolation-filters:linearRGB;solid-color:#000000;solid-opacity:1;vector-effect:none;fill:#000000;fill-opacity:1;fill-rule:nonzero;stroke:none;stroke-width:1.63425;stroke-linecap:round;stroke-linejoin:miter;stroke-miterlimit:4;stroke-dasharray:none;stroke-dashoffset:0;stroke-opacity:1;color-rendering:auto;image-rendering:auto;shape-rendering:auto;text-rendering:auto;enable-background:accumulate;stop-color:#000000;stop-opacity:1"
       d="m 99.979993,188.56682 a 0.62902197,0.62902197 0 0 0 -0.63157,0.62902 v 0.45792 h -2.883552 a 0.8171235,0.8171235 0 0 0 -0.817127,0.81713 0.8171235,0.8171235 0 0 0 0.817127,0.81712 h 2.883552 v 0.45793 a 0.62902197,0.62902197 0 0 0 0.943517,0.54475 l 2.20837,-1.27506 a 0.62902197,0.62902197 0 0 0 0,-1.0895 l -2.20837,-1.27505 a 0.62902197,0.62902197 0 0 0 -0.311947,-0.0842 z" />
  </g>
</svg>
