<?xml version="1.0" encoding="UTF-8" standalone="no"?><!-- Generator: Gravit.io --><svg xmlns="http://www.w3.org/2000/svg" xmlns:xlink="http://www.w3.org/1999/xlink" style="isolation:isolate" viewBox="367.667 338.91 152.333 46.823" width="152.333pt" height="46.823pt"><path d=" M 420.343 338.91 L 373.52 338.91 C 370.3 338.91 367.696 341.544 367.696 344.763 L 367.667 379.881 C 367.667 383.1 370.3 385.734 373.52 385.734 L 420.343 385.734 C 423.562 385.734 426.196 383.1 426.196 379.881 L 426.196 344.763 C 426.196 341.544 423.562 338.91 420.343 338.91 Z  M 420.343 379.881 L 373.52 379.881 L 373.52 350.616 L 396.931 365.248 L 420.343 350.616 L 420.343 379.881 Z  M 396.931 359.395 L 373.52 344.763 L 420.343 344.763 L 396.931 359.395 Z " fill="rgb(0,0,0)"/><path d=" M 480.076 377.908 C 480.076 374.821 482.582 372.315 485.67 372.315 C 488.757 372.315 491.263 374.821 491.263 377.908 C 491.263 380.995 488.757 383.502 485.67 383.502 C 482.582 383.502 480.076 380.995 480.076 377.908 Z  M 480.076 343.578 L 480.076 350.839 C 498.114 350.839 512.739 365.464 512.739 383.502 L 520 383.502 C 520 361.461 502.116 343.578 480.076 343.578 Z  M 480.076 358.1 L 480.076 365.361 C 490.083 365.361 498.216 373.495 498.216 383.502 L 505.478 383.502 C 505.478 369.467 494.111 358.1 480.076 358.1 Z " fill-rule="evenodd" fill="rgb(0,0,0)"/><path d=" M 467.159 361.9 L 456.912 354.589 C 456.247 354.114 455.311 354.589 455.311 355.407 L 455.311 360.514 C 455.311 361.071 454.883 361.523 454.326 361.523 L 437.761 361.523 C 437.204 361.523 436.729 361.974 436.729 362.531 L 436.729 364.548 C 436.729 365.105 437.204 365.557 437.761 365.557 L 454.326 365.557 C 454.883 365.557 455.311 366.009 455.311 366.565 L 455.311 371.673 C 455.311 372.49 456.246 372.966 456.912 372.491 L 467.153 365.18 C 467.683 364.802 467.999 364.192 468 363.541 C 468.001 362.89 467.688 362.279 467.159 361.9 Z " fill="rgb(0,0,0)"/></svg>